<svg width="194" height="144" viewBox="0 0 194 144" fill="none" xmlns="http://www.w3.org/2000/svg">
<path d="M112.243 72.532C116.251 105.312 85.309 142.618 55.0156 140.899C24.7222 139.18 -9.85337 97.2613 8.25117 60.622C26.3557 23.9827 57.1052 2.79647 57.1052 2.79647C57.1052 2.79647 108.236 39.7523 112.243 72.532Z" fill="#7C99B2"/>
<path d="M192.821 44.0776C195.629 92.8309 177.321 140.578 132.321 138.078C106.657 136.652 80.8208 94.4094 80.8208 68.5776C80.8208 42.7459 106.618 2.57764 132.321 2.57764C158.024 2.57764 192.821 18.2459 192.821 44.0776Z" fill="#51AF8B"/>
<circle cx="120.821" cy="46.5776" r="4" fill="white"/>
<circle cx="36.8208" cy="62.5776" r="4" fill="white"/>
<circle cx="159.821" cy="46.5776" r="4" fill="white"/>
<circle cx="61.8208" cy="62.5776" r="4" fill="white"/>
<path d="M103.748 83.6082C119.211 125.998 165.55 118.224 173.781 84.8892" stroke="white" stroke-width="5" stroke-linecap="round"/>
<path d="M26.8209 85.5776C34.2466 110.128 62.0155 105.827 69.8209 87.0394" stroke="white" stroke-width="5" stroke-linecap="round"/>
</svg>
